#N canvas 969 26 888 746 12;
#X obj 8 8 cnv 15 900 600 empty empty empty 20 12 0 14 -233017 -66577
0;
#X obj 129 400 osc~;
#X obj 128 24 bng 30 250 50 0 sound_start empty empty 17 7 0 30 -262144
-1 -1;
#X obj 198 432 line~;
#X obj 425 627 output~;
#X obj 159 509 *~;
#X obj 141 57 s attack;
#X obj 198 195 r attack;
#X msg 222 398 0 \$1;
#X obj 263 259 vsl 15 128 0 600 0 0 empty empty empty 0 -9 0 10 -262144
-1 -1 889 1;
#X msg 198 270 0 \, 1 20;
#X obj 245 221 del;
#X text 268 411 decay;
#X obj 23 418 noise~;
#X obj 158 480 *~;
#X obj 25 69 vsl 15 128 0 127 0 0 empty empty empty 0 -9 0 10 -262144
-1 -1 1300 1;
#X floatatom 25 224 5 0 0 0 - - -;
#X text 107 223 phase;
#X obj 263 56 vsl 15 128 0 200 0 0 empty empty empty 0 -9 0 10 -262144
-1 -1 4572 1;
#X text 260 35 time to peak;
#X obj 340 285 noise~;
#X obj 339 315 lop~;
#X obj 392 286 knob 32 32 0 2700 0 0 empty empty empty 0 -8 0 8 -262144
-1 -1 1550 1;
#X obj 392 449 line~;
#X obj 339 486 *~;
#X msg 392 416 1 \, 0 \$1;
#X obj 392 370 knob 32 32 0 500 0 0 empty empty empty 0 -8 0 8 -262144
-1 -1 1178 1;
#X text 431 293 lowpass hz;
#X obj 421 555 +~;
#X obj 392 334 t b;
#X obj 318 134 cnv 15 10 400 empty empty empty 20 12 0 14 -204786 -66577
0;
#X obj 25 457 hip~;
#X obj 76 413 knob 32 32 0 7300 0 0 empty empty empty 0 -8 0 8 -262144
-1 -1 2633 1;
#X obj 25 303 osc~;
#X obj 25 327 +~ 1;
#X obj 25 351 *~ 0.5;
#X obj 36 384 *~;
#X obj 37 258 knob 32 32 0 2 0 0 empty empty empty 0 -8 0 8 -262144
-1 -1 573 1;
#X obj 396 39 loadbang;
#X obj 436 67 f 13;
#X obj 395 18 bng 15 250 50 0 empty empty empty 17 7 0 10 -262144 -1
-1;
#X floatatom 270 190 5 0 0 0 - - -;
#X obj 436 91 f 72;
#X obj 436 117 f 0.37;
#X obj 436 143 f 6200;
#X obj 436 197 f 1350;
#X obj 436 224 f 190;
#X floatatom 270 395 5 0 0 0 - - -;
#X obj 436 173 f 42;
#X obj 542 134 cnv 15 10 400 empty empty empty 20 12 0 14 -204786 -66577
0;
#X text 431 369 line duration 0..500 ms;
#X obj 74 224 0.25;
#X floatatom 623 102 5 0 0 0 - - -;
#X obj 623 135 mtof;
#X floatatom 622 166 8 0 0 0 - - -;
#X obj 701 138 + 1;
#X obj 595 233 bp~;
#X obj 595 269 *~;
#X obj 562 162 noise~;
#X obj 596 499 +~;
#X obj 49 642 +~;
#X obj 131 642 *~;
#X floatatom 196 641 5 0 0 0 - - -;
#X floatatom 701 103 5 0 0 0 - - -;
#X text 589 101 freq;
#X text 738 101 Q;
#X obj 594 364 *~ 0.5;
#X obj 676 415 line~;
#X msg 676 379 1 \, 0 \$1;
#X obj 595 429 *~;
#X obj 676 320 knob 32 32 0 700 0 0 empty empty empty 0 -8 0 8 -262144
-1 -1 1196 1;
#X floatatom 721 357 5 0 0 0 - - -;
#X obj 676 280 f 270;
#X obj 623 71 f 94;
#X obj 701 70 f 8;
#X connect 1 0 5 1;
#X connect 2 0 6 0;
#X connect 2 0 15 0;
#X connect 2 0 18 0;
#X connect 2 0 26 0;
#X connect 2 0 22 0;
#X connect 2 0 32 0;
#X connect 2 0 37 0;
#X connect 2 0 51 0;
#X connect 2 0 70 0;
#X connect 3 0 14 1;
#X connect 5 0 28 0;
#X connect 7 0 10 0;
#X connect 7 0 11 0;
#X connect 8 0 3 0;
#X connect 9 0 8 0;
#X connect 9 0 47 0;
#X connect 10 0 3 0;
#X connect 11 0 9 0;
#X connect 13 0 31 0;
#X connect 14 0 5 0;
#X connect 15 0 16 0;
#X connect 16 0 36 1;
#X connect 18 0 11 1;
#X connect 18 0 41 0;
#X connect 20 0 21 0;
#X connect 21 0 24 0;
#X connect 22 0 21 1;
#X connect 22 0 29 0;
#X connect 23 0 24 1;
#X connect 24 0 28 1;
#X connect 25 0 23 0;
#X connect 26 0 25 0;
#X connect 28 0 4 0;
#X connect 28 0 4 1;
#X connect 29 0 26 0;
#X connect 31 0 14 0;
#X connect 32 0 31 1;
#X connect 33 0 34 0;
#X connect 34 0 35 0;
#X connect 35 0 36 0;
#X connect 36 0 1 0;
#X connect 37 0 33 0;
#X connect 38 0 39 0;
#X connect 38 0 42 0;
#X connect 38 0 43 0;
#X connect 38 0 44 0;
#X connect 38 0 45 0;
#X connect 38 0 46 0;
#X connect 38 0 48 0;
#X connect 38 0 72 0;
#X connect 38 0 73 0;
#X connect 38 0 74 0;
#X connect 39 0 15 0;
#X connect 40 0 38 0;
#X connect 42 0 18 0;
#X connect 43 0 37 0;
#X connect 44 0 32 0;
#X connect 45 0 22 0;
#X connect 46 0 26 0;
#X connect 48 0 9 0;
#X connect 51 0 1 1;
#X connect 51 0 33 1;
#X connect 52 0 53 0;
#X connect 53 0 54 0;
#X connect 54 0 56 1;
#X connect 55 0 57 1;
#X connect 56 0 57 0;
#X connect 57 0 66 0;
#X connect 58 0 56 0;
#X connect 59 0 28 1;
#X connect 63 0 56 2;
#X connect 63 0 55 0;
#X connect 66 0 69 0;
#X connect 67 0 69 1;
#X connect 68 0 67 0;
#X connect 69 0 59 0;
#X connect 70 0 68 0;
#X connect 70 0 71 0;
#X connect 72 0 70 0;
#X connect 73 0 52 0;
#X connect 74 0 63 0;
