#N canvas 74 70 859 910 12;
#X obj 0 -2 cnv 15 840 610 empty empty empty 20 12 0 14 -233017 -66577
0;
#X obj 358 71 table foo 10;
#X obj 344 20 bng 15 250 50 0 empty empty empty 17 7 0 10 -262144 -1
-1;
#X obj 344 99 tabplay~ foo;
#X obj 272 64 cnv 15 12 60 empty empty empty 20 12 0 14 -204786 -66577
0;
#X text 104 84 creates impulse table;
#X floatatom 454 199 5 0 0 0 - - -;
#X obj 454 225 mtof;
#X floatatom 540 253 5 0 0 0 - - -;
#X obj 445 341 bp~;
#X obj 540 304 + 1;
#X obj 445 390 *~;
#X floatatom 454 250 8 0 0 0 - - -;
#X obj 344 252 +~;
#X obj 428 462 output~;
#X obj 446 436 +~;
#X msg 461 68 \; foo 0 1 0;
#X text 301 231 signal (impulse);
#X text 415 250 freq;
#X text 387 197 midinote;
#X text 588 252 Q (quality);
#X obj 576 20 loadbang;
#X text 537 229 produces tail 20 .. 3400;
#X obj 610 132 2260;
#X obj 576 131 96;
#X text 276 554 based on: pd-la.info/media/MUS171/Miller_MUS171_Lecture18_v2.mp4
;
#X connect 2 0 3 0;
#X connect 3 0 13 0;
#X connect 6 0 7 0;
#X connect 7 0 12 0;
#X connect 8 0 10 0;
#X connect 8 0 9 2;
#X connect 9 0 11 0;
#X connect 10 0 11 1;
#X connect 11 0 15 0;
#X connect 12 0 9 1;
#X connect 13 0 9 0;
#X connect 15 0 14 0;
#X connect 15 0 14 1;
#X connect 21 0 16 0;
#X connect 21 0 23 0;
#X connect 21 0 24 0;
#X connect 23 0 8 0;
#X connect 24 0 6 0;
